
<svg width="63px" height="64px" viewBox="0 0 63 64" version="1.1" xmlns="http://www.w3.org/2000/svg" xmlns:xlink="http://www.w3.org/1999/xlink">
    <!-- Generator: Sketch 47.1 (45422) - http://www.bohemiancoding.com/sketch -->
    <desc>Created with Sketch.</desc>
    <defs></defs>
    <g id="Welcome" stroke="none" stroke-width="1" fill="none" fill-rule="evenodd" stroke-linecap="square">
        <g id="Desktop-HD-Copy-2" transform="translate(-42.000000, -40.000000)" stroke="#000000" stroke-width="2">
            <g id="Logo" transform="translate(42.000000, 40.000000)">
                <path d="M1,1 L13,1" id="Line"></path>
                <path d="M1,1 L1,13 L1,1 Z" id="Line"></path>
                <path d="M48,1 L60,1" id="Line"></path>
                <path d="M61,1 L61,12.8371244" id="Line"></path>
                <path d="M1,63 L13,63" id="Line-2"></path>
                <path d="M1,51 L1,62.8371244" id="Line-2"></path>
                <polyline id="Line-2" points="50 63 53.4098684 63 62 63"></polyline>
                <path d="M7,8 L7,55.3484977" id="Line-2"></path>
                <path d="M62,62 L62,50" id="Line-2"></path>
                <path d="M12,8 L12,55.3484977" id="Line-2"></path>
                <path d="M20,8 L20,55.3484977" id="Line-2"></path>
                <path d="M29,8 L29,55.3484977" id="Line-2"></path>
                <path d="M33,8 L33,55.3484977" id="Line-2"></path>
                <path d="M37,8 L37,55.3484977" id="Line-2"></path>
                <path d="M42,8 L42,55.3484977" id="Line-2"></path>
                <path d="M47,8 L47,55.3484977" id="Line-2"></path>
                <path d="M55,8 L55,55.3484977" id="Line-2"></path>
            </g>
        </g>
    </g>
</svg>